<svg xmlns="http://www.w3.org/2000/svg" xml:space="preserve" width="189.06" height="32" viewBox="19.47 7 189.06 32"><path fill="#FF0040" d="M19.47 7v32h31.999V7H19.47zm27.428 27.429H24.041V11.571h22.857v22.858zm-7.737-8.226L35.849 23l3.312-3.116v-6.32L29.315 23l9.846 9.436v-6.233z"></path><path fill="#ffffff" d="M64.709 24.447c-4.04.64-6.945 4.122-6.554 7.854.199 1.898.965 3.39 2.416 4.703 2.886 2.61 7.679 2.653 10.51.091.424-.384.771-.74.771-.793 0-.075-.805-1.044-2.135-2.568-.024-.027-.364.244-.755.602-.932.852-1.814 1.185-3.128 1.182-.685-.003-1.154-.076-1.515-.24-2.292-1.042-2.975-4.111-1.329-5.982 1.555-1.767 4.143-1.776 6.14-.024l.443.39.511-.576c.281-.316.795-.902 1.142-1.302l.63-.728-.785-.711c-.824-.746-2.23-1.507-3.207-1.736-.843-.2-2.41-.279-3.155-.162zm8.815 7.6v6.817h3.286l2.892-3.678 2.891-3.68.034 3.742.034 3.744h3.856V25.228l-1.704.008-1.705.007-2.83 3.618-2.83 3.618-.034-3.626-.034-3.625h-3.855v6.819zm16.08.063v6.883h3.988v-5.145h5.012l.035 2.54.035 2.541 1.962.036 1.961.035V25.228h-3.988v4.888h-5.016v-4.888h-3.988v6.882zm15.438 0v6.883h10.548V35.648h-6.819v-1.931h5.146v-3.214h-5.146v-1.926l3.313-.034 3.312-.033.035-1.642.038-1.64h-10.428v6.882zm12.863-.006v6.889h3.731v-4.117h1.536c.846 0 1.844-.066 2.219-.146 2.018-.427 3.521-1.967 3.837-3.929.338-2.093-.735-4.132-2.677-5.088l-.857-.422-3.895-.039-3.895-.039v6.891zm13.764.006v6.883h3.731V28.836l2.99-.035 2.992-.035.035-1.768.036-1.77h-9.786v6.882zm11.321-.063v6.817h3.301l2.885-3.665 2.882-3.667.034 3.73.034 3.73h3.857V25.22l-1.7.035-1.7.036-2.834 3.602-2.835 3.601-.034-3.634-.034-3.633h-3.856v6.82zm18.377-6.572c-.775.248-1.324.58-2.021 1.221-1.388 1.278-1.8 3.462-.976 5.175.282.587 1.181 1.561 1.763 1.913.188.113.108.314-.655 1.673a468.54 468.54 0 0 0-1.419 2.54l-.55.997 2.035-.002 2.034-.002 1.094-2.118 1.094-2.12.993-.002.994-.001.036 2.09.034 2.091 1.963.036 1.961.034V25.228l-3.827.008c-3.323.005-3.923.037-4.553.239zm-36.785 3.3c1.032.413 1.19 1.724.282 2.334-.385.26-.594.293-1.769.293h-1.331v-2.83h1.154c.754 0 1.334.073 1.664.203zm41.178 1.291v1.365l-1.471-.048c-1.244-.039-1.527-.088-1.833-.313-.557-.413-.733-.866-.552-1.418.254-.767.718-.95 2.408-.95h1.447v1.364zM147.535 7.344c-2.125.665-4.138 2.537-4.792 4.457-1.918 5.629 3.339 10.97 9.297 9.443 1.379-.353 3.063-1.295 3.713-2.078.25-.302.128-.551-.795-1.62l-1.09-1.262-1.14.784c-1.905 1.311-3.707 1.345-5.129.096-1.03-.904-1.378-1.813-1.24-3.243.289-3.004 3.428-4.277 6.238-2.53l1.201.747 1.102-1.235 1.103-1.235-.979-.869c-1.851-1.639-4.963-2.244-7.489-1.455zm-89.228.595c0 .139 1.014 2.216 2.252 4.615l2.252 4.362-.526.533c-.416.421-.768.529-1.674.516l-1.148-.017v3.354l1.019.153c1.874.281 3.328-.271 4.585-1.74.602-.703 5.055-9.577 5.883-11.723.084-.218-.4-.289-1.972-.289h-2.083l-.681 1.79c-.374.984-.82 2.18-.99 2.656-.171.476-.373.866-.449.866-.077 0-.656-1.169-1.289-2.599l-1.15-2.598-2.014-.067c-1.347-.043-2.015.02-2.015.188zm14.208 6.695v6.929h3.911l.065-2.598.065-2.599 2.484-.066 2.483-.065v5.328h3.926V7.705h-3.926v4.85h-5.082v-4.85h-3.926v6.929zm15.356-.116v6.813l1.674-.01 1.674-.01 2.772-3.557 2.771-3.557.063 3.692.064 3.692 1.899-.067 1.899-.067V7.82l-1.616-.064-1.617-.065-2.887 3.704-2.887 3.704-.063-3.697-.064-3.697h-3.684v6.813zm15.244.138v6.951l4.099-.086c4.548-.094 4.958-.205 6.249-1.674.851-.969 1.115-2.109.748-3.224-.27-.814-1.629-2.218-2.154-2.223-.154-.001.05-.263.454-.581 2.125-1.674 1.218-4.927-1.606-5.765-.809-.24-2.205-.349-4.482-.349h-3.306v6.951zm13.626-.027v6.933h10.393v-3.464h-6.698V16.25H125.517v-3.233H120.436v-1.835l3.291-.064 3.291-.064V7.82l-5.138-.062-5.141-.063v6.934zm12.704.014v6.939l1.905-.067 1.905-.067.067-2.021.066-2.021 1.78-.005c2.067-.006 3.234-.445 4.365-1.641.926-.979 1.228-1.771 1.228-3.229 0-2.109-1.528-4.055-3.595-4.575-.55-.138-2.511-.251-4.36-.251h-3.362v6.938zm28.178-.125v6.813l1.674-.007 1.675-.008 2.771-3.56 2.772-3.559.063 3.683.063 3.682h3.915V7.705H167.206l-2.771 3.57c-1.524 1.964-2.85 3.575-2.945 3.58-.096.005-.173-1.602-.173-3.571v-3.58h-3.696v6.814zm14.646-5.081v1.732h3.927v10.394H179.891V11.169h3.697V7.705h-11.317v1.732zm12.933 5.192v6.933h10.393v-3.464h-6.699V16.25H193.977v-3.233H188.896v-1.848h6.718l-.068-1.674-.066-1.675-5.139-.062-5.14-.063v6.934zm12.011-5.192v1.732h3.696v10.413l1.905-.067 1.905-.067.063-5.139.063-5.139H208.532V7.705h-11.317v1.732zm-87.677 1.547c.439.439.337 1.522-.17 1.793-.245.131-.921.239-1.501.239h-1.054v-2.31h1.224c.673.001 1.348.126 1.501.278zm26.787.545c.612.43.676 1.387.131 1.989-.288.318-.718.423-1.733.423h-1.35v-2.772h1.22c.728 0 1.425.144 1.732.36zm-26.331 4.619c.566.396.696 1.445.237 1.904-.161.162-.935.277-1.848.277h-1.57v-2.541h1.334c.834.001 1.527.135 1.847.36z"></path></svg>